:FULLY-SPECIFIED
:FORCE-ALL-JOINTS-BE-3DOF
:DEGREES
130
root 9.11075 16.0966 -19.1866 5.48757 6.12457 4.60656
lfemur 11.5743 1.26342 -26.7356
ltibia 6.80787 -0 0
lfoot -15.1 1.57928 0.0274755
ltoes -5.1499 0 0
rfemur -39.2898 11.4418 7.30901
rtibia 26.2786 -0 0
rfoot -24.042 -11.6647 0.0672229
rtoes -21.0167 0 0
lowerback -7.80883 -3.17888 -5.74171
upperback -1.28705 -3.82291 2.21937
thorax 3.61945 -1.992 5.05955
lowerneck -18.8037 -5.55504 -13.5594
upperneck 20.4453 -6.59926 11.6541
head 10.5509 -2.79379 5.5035
lclavicle -8.99497e-14 1.05714e-14 2.34683e-30
lhumerus -31.4441 -24.6228 96.429
lradius 40.1774 -0 0
lwrist 11.6914 0 0
lhand -11.4699 -24.382 0.000934027
lfingers 7.12502 -0 0
lthumb 14.5675 5.081 -0.000201735
rclavicle -8.99497e-14 1.05714e-14 2.34683e-30
rhumerus -46.2562 7.63603 -82.6724
rradius 35.0657 -0 0
rwrist -19.338 0 0
rhand -30.2212 -22.9075 0.00289346
rfingers 7.12502 -0 0
rthumb -3.53113 -52.8577 0.00277038
131
root 9.09224 16.1069 -19.0446 5.52495 6.11402 4.4833
lfemur 10.7512 1.32473 -26.5615
ltibia 7.78042 -0 0
lfoot -15.057 1.77232 0.0308204
ltoes -5.10827 0 0
rfemur -38.8656 11.3779 7.70168
rtibia 26.3177 -0 0
rfoot -23.9568 -11.4262 0.0754091
rtoes -20.8902 0 0
lowerback -7.74231 -3.09558 -5.62992
upperback -1.30157 -3.72499 2.24005
thorax 3.55478 -1.94016 5.02683
lowerneck -18.6991 -5.58376 -13.6013
upperneck 20.3048 -6.64984 11.7354
head 10.4961 -2.81433 5.53137
lclavicle -8.86185e-14 1.0037e-14 2.63242e-30
lhumerus -31.7868 -24.3728 96.4694
lradius 40.0406 -0 0
lwrist 11.7957 0 0
lhand -11.5455 -24.3858 0.0010477
lfingers 7.12502 -0 0
lthumb 14.4947 5.08184 -0.000226286
rclavicle -8.86185e-14 1.0037e-14 2.63242e-30
rhumerus -46.1474 7.68204 -82.5907
rradius 35.2486 -0 0
rwrist -19.3811 0 0
rhand -30.2415 -22.9508 0.00324559
rfingers 7.12502 -0 0
rthumb -3.55071 -52.9006 0.00310753
132
root 9.07372 16.1172 -18.9026 5.56236 6.10355 4.36003
lfemur 9.92816 1.38852 -26.3882
ltibia 8.75297 -0 0
lfoot -15.0139 1.96537 0.0340203
ltoes -5.06664 0 0
rfemur -38.442 11.3111 8.09377
rtibia 26.3569 -0 0
rfoot -23.8715 -11.1878 0.0832405
rtoes -20.7637 0 0
lowerback -7.67563 -3.01241 -5.51804
upperback -1.31605 -3.62707 2.26071
thorax 3.49009 -1.88836 4.99405
lowerneck -18.5944 -5.61241 -13.6433
upperneck 20.1643 -6.70022 11.8168
head 10.4412 -2.83486 5.55926
lclavicle -8.72873e-14 9.50256e-15 2.9056e-30
lhumerus -32.1286 -24.1225 96.5081
lradius 39.9038 -0 0
lwrist 11.9001 0 0
lhand -11.621 -24.3895 0.00115643
lfingers 7.12502 -0 0
lthumb 14.4219 5.08268 -0.00024977
rclavicle -8.72873e-14 9.50256e-15 2.9056e-30
rhumerus -46.0384 7.7279 -82.5089
rradius 35.4314 -0 0
rwrist -19.4241 0 0
rhand -30.2618 -22.994 0.0035824
rfingers 7.12502 -0 0
rthumb -3.5703 -52.9434 0.00343001
133
root 9.05521 16.1275 -18.7606 5.59978 6.09315 4.23676
lfemur 9.10535 1.4548 -26.2159
ltibia 9.72552 -0 0
lfoot -14.9708 2.15842 0.0370749
ltoes -5.025 0 0
rfemur -38.0189 11.2415 8.48525
rtibia 26.3961 -0 0
rfoot -23.7862 -10.9493 0.090717
rtoes -20.6372 0 0
lowerback -7.6088 -2.92936 -5.40607
upperback -1.33049 -3.52914 2.28134
thorax 3.42537 -1.83659 4.96122
lowerneck -18.4897 -5.64098 -13.6853
upperneck 20.0236 -6.75039 11.8983
head 10.3864 -2.85535 5.58718
lclavicle -8.59561e-14 8.96812e-15 3.16635e-30
lhumerus -32.4696 -23.8721 96.5451
lradius 39.7671 -0 0
lwrist 12.0044 0 0
lhand -11.6965 -24.3933 0.00126022
lfingers 7.12502 -0 0
lthumb 14.3491 5.08352 -0.000272187
rclavicle -8.59561e-14 8.96812e-15 3.16635e-30
rhumerus -45.9294 7.77361 -82.4271
rradius 35.6143 -0 0
rwrist -19.4672 0 0
rhand -30.2821 -23.0373 0.00390391
rfingers 7.12502 -0 0
rthumb -3.58988 -52.9863 0.00373785
